<?xml version="1.0" encoding="iso-8859-1"?>
<!-- Generator: Adobe Illustrator 19.0.0, SVG Export Plug-In . SVG Version: 6.00 Build 0)  -->
<svg version="1.1" id="Layer_1" xmlns="http://www.w3.org/2000/svg" x="0px" y="0px"
     viewBox="0 0 512.001 512.001" style="enable-background:new 0 0 512.001 512.001;" xml:space="preserve">
<path style="fill:#D6DAE6;" d="M339.806,404.92l8.819-28.75c0-52.804-27.827-80.444-27.827-80.444l-13.953-17.74H205.158
	l-13.953,17.74c0,0-27.827,27.64-27.827,80.444l8.819,28.75L339.806,404.92L339.806,404.92z"/>
<path style="opacity:0.1;enable-background:new    ;" d="M212.242,295.727l13.953-17.74h-21.039l-13.953,17.74
	c0,0-27.827,27.64-27.827,80.444l8.819,28.751h21.039l-8.819-28.751C184.415,323.366,212.242,295.727,212.242,295.727z"/>
<path style="fill:#D6DAE6;" d="M239.576,151.528C199.459,32.924,162.795-5.634,133.698,11.921s-12.082,67.967,74.135,158.758
	L239.576,151.528z"/>
<path style="opacity:0.1;enable-background:new    ;" d="M218.353,160.159C145.09,83.01,121.805,35.021,134.313,11.57
	c-0.205,0.118-0.41,0.227-0.614,0.35c-29.097,17.555-12.082,67.967,74.135,158.758l31.741-19.151
	c-0.394-1.166-0.788-2.31-1.181-3.461L218.353,160.159z"/>
<path style="fill:#D6DAE6;" d="M272.426,151.528C312.543,32.924,349.207-5.634,378.304,11.921s12.082,67.967-74.135,158.758
	L272.426,151.528z"/>
<path style="fill:#DDE1ED;" d="M329.155,192.318c0-40.402-32.752-73.154-73.154-73.154c-40.402,0-73.154,32.752-73.154,73.154
	c-37.416,0-56.124,117.766,73.154,117.766S366.571,192.318,329.155,192.318z"/>
<path style="opacity:0.1;enable-background:new    ;" d="M203.886,192.318c0-36.828,27.219-67.287,62.635-72.389
	c-3.437-0.495-6.946-0.764-10.519-0.764c-40.402,0-73.154,32.752-73.154,73.154c-37.416,0-56.125,117.766,73.154,117.766
	c3.628,0,7.122-0.106,10.519-0.286C148.844,303.553,167.52,192.318,203.886,192.318z"/>
<path style="fill:#FFA0C1;" d="M380.875,352.289c-0.033,0.033-0.065,0.066-0.098,0.099l-17.349,17.681
	c-7.988,8.142-21.104,8.142-29.092,0l-17.349-17.681c-7.988-8.142-21.104-8.142-29.092,0l-17.349,17.681
	c-7.988,8.142-21.104,8.142-29.092,0l-17.348-17.68c-7.988-8.142-21.104-8.142-29.092,0l-17.349,17.681
	c-7.988,8.142-21.104,8.142-29.092,0l-17.349-17.681c-0.033-0.033-0.065-0.066-0.098-0.099c-4.155-4.178-11.313-0.735-10.815,5.137
	C129.053,460.45,194.002,504.112,256,504.112s126.947-43.662,135.689-146.685C392.188,351.555,385.031,348.111,380.875,352.289z"/>
<g style="opacity:0.1;">
	<path d="M141.924,363.294l-10.699-10.905c-0.033-0.034-0.065-0.066-0.098-0.099c-4.155-4.178-11.313-0.735-10.815,5.137
		c8.742,103.023,73.69,146.685,135.689,146.685c3.501,0,7.011-0.147,10.519-0.428C209.08,499.079,151.981,456.415,141.924,363.294z"
		/>
</g>
<circle cx="216.764" cy="213.396" r="8.396"/>
<path d="M220.656,244.075c-1.997,3.873-0.475,8.631,3.398,10.628c6.308,3.253,12.049,4.88,17.178,4.88
	c4.082,0,7.777-1.031,11.06-3.094c1.398-0.877,2.628-1.893,3.71-3.003c1.082,1.111,2.312,2.126,3.709,3.003
	c7.409,4.656,16.909,4.054,28.237-1.785c3.873-1.996,5.394-6.755,3.398-10.628c-1.997-3.873-6.753-5.394-10.628-3.397
	c-5.752,2.964-10.344,3.861-12.599,2.458c-2.82-1.755-4.134-7.834-4.229-11.864c0.001-0.064,0.001-0.118,0.002-0.178
	c1.803-1.274,2.914-2.979,2.914-4.859c0-3.937-4.838-7.129-10.807-7.129c-5.968,0-10.807,3.192-10.807,7.129
	c0,1.881,1.112,3.585,2.915,4.859c0.001,0.049,0.001,0.094,0.001,0.146c-0.094,4.056-1.407,10.141-4.229,11.896
	c-2.256,1.402-6.846,0.507-12.599-2.458C227.41,238.681,222.652,240.203,220.656,244.075z"/>
<circle cx="295.238" cy="213.396" r="8.396"/>
<path d="M391.271,343.896c-5.481-2.537-11.755-1.426-15.975,2.815l-17.499,17.835c-0.505,0.514-1.053,0.969-1.625,1.382
	c-2.278-34.304-15.569-57.32-23.625-68.324c2.7-1.937,5.261-4.009,7.679-6.219c15.797-14.435,24.496-34.145,24.496-55.5
	c0-25.064-11.788-45.409-27.957-50.322c-0.874-10.55-3.787-20.528-8.328-29.55c51.403-57.373,74.46-98.689,70.428-126.199
	c-1.545-10.549-7.247-19.072-16.488-24.647C376.698,1.738,370.708,0,364.573,0c-29.004,0-57.518,37.374-87.078,114.189
	c-6.85-1.886-14.052-2.915-21.493-2.915c-7.441,0-14.644,1.028-21.493,2.915c-25.663-66.694-50.412-103.42-75.565-112.178
	c-9.993-3.479-20.132-2.389-29.32,3.154c-13.254,7.997-25.554,25.39-8.874,62.839c1.774,3.981,6.438,5.77,10.416,3.997
	c3.981-1.773,5.77-6.437,3.997-10.416c-3.589-8.058-14.509-32.58,2.611-42.909c5.252-3.169,10.329-3.729,15.98-1.762
	c25.906,9.018,51.558,65.508,66.013,102.919c-0.099,0.049-0.195,0.107-0.294,0.157c-1.44,0.73-2.814,1.584-4.246,2.323
	c-8.702,5.084-16.589,11.911-22.871,19.853c-17.355-19.604-31.387-37.472-41.779-53.208c-2.402-3.637-7.297-4.637-10.932-2.235
	c-3.635,2.402-4.637,7.295-2.235,10.932c11.398,17.259,26.912,36.875,46.151,58.362c-4.54,9.022-7.451,18.998-8.326,29.546
	c-16.169,4.913-27.957,25.258-27.957,50.322c0,21.355,8.7,41.066,24.498,55.5c2.414,2.206,4.97,4.276,7.665,6.211
	c-8.065,10.987-21.344,33.957-23.616,68.33c-0.57-0.412-1.117-0.866-1.621-1.379l-17.483-17.819
	c-4.234-4.256-10.51-5.367-15.991-2.829c-5.544,2.567-8.793,8.14-8.28,14.197c4.185,49.311,21.579,89.781,50.304,117.032
	c25.065,23.779,58.18,36.875,93.246,36.875c27.889,0,54.527-8.204,77.036-23.726c3.587-2.474,4.49-7.387,2.017-10.974
	s-7.387-4.49-10.974-2.017c-19.862,13.697-43.403,20.938-68.077,20.938c-31.007,0-60.266-11.558-82.385-32.543
	c-25.077-23.791-40.609-59.247-45.051-102.736l14.377,14.654c5.36,5.462,12.525,8.47,20.178,8.47c7.059,0,13.976-2.689,19.159-7.482
	c6.388-5.909,12.273-12.458,18.368-18.67c2.342-2.386,5.571-3.743,8.914-3.743c0.151,0,0.3,0.017,0.45,0.022
	c3.188,0.109,6.233,1.444,8.465,3.721c5.783,5.894,11.565,11.788,17.348,17.682c3.685,3.755,8.223,6.351,13.187,7.606
	c3.201,0.81,6.55,1.05,9.836,0.725c6.571-0.651,12.644-3.551,17.334-8.33c0,0,17.343-17.678,17.348-17.682
	c2.344-2.389,5.57-3.743,8.915-3.743c3.309,0,6.597,1.379,8.915,3.743c5.946,6.06,11.728,12.354,17.882,18.202
	c5.291,5.027,12.321,7.951,19.644,7.951c7.653,0,14.818-3.008,20.177-8.47l14.378-14.654c-3.968,39.121-16.489,70.931-37.246,94.601
	c-2.873,3.276-2.546,8.261,0.73,11.134c3.276,2.872,8.26,2.546,11.134-0.73c23.76-27.095,37.721-63.382,41.494-107.852
	C400.065,352.036,396.815,346.463,391.271,343.896z M332.126,40.226c11.679-15.993,22.899-24.447,32.447-24.447
	c3.265,0,6.424,0.948,9.656,2.897c5.283,3.187,8.151,7.453,9.027,13.423c4.066,27.752-35.409,78.129-63.614,110.061
	c-7.287-9.22-16.63-16.866-27.116-22.173c-0.1-0.05-0.195-0.108-0.295-0.158C305.744,84.752,319.152,57.992,332.126,40.226z
	 M163.059,235.883c0-19.005,9.248-35.677,19.789-35.677c4.357,0,7.89-3.532,7.89-7.89c0-15.735,5.598-30.188,14.907-41.471
	c0.008-0.011,0.017-0.021,0.025-0.031c12.213-14.917,31.076-23.762,50.332-23.762c19.248,0,38.081,8.93,50.332,23.762
	c0.008,0.011,0.017,0.021,0.025,0.031c9.309,11.283,14.907,25.736,14.907,41.471c0,4.357,3.532,7.89,7.89,7.89
	c10.542,0,19.789,16.671,19.789,35.677c0,9.77-2.515,28.458-19.362,43.852c-19.596,17.906-47.945,22.458-73.582,22.458
	c-25.52,0-54.057-4.618-73.58-22.458C165.574,264.342,163.059,245.652,163.059,235.883z M339.968,364.544l-17.348-17.682
	c-5.36-5.463-12.525-8.471-20.177-8.471c-16.343,0-27.101,15.526-37.527,26.152c-9.842,10.031-19.894-2.253-26.346-9.258
	c-7.764-8.429-16.807-16.894-29.01-16.894c-16.685,0-27.025,15.439-37.526,26.152c-0.095,0.097-0.2,0.181-0.297,0.275
	c2.579-30.765,15.112-50.838,21.413-59.152c-0.203,0.267,23.785,8.212,26.002,8.688c12.09,2.591,24.495,3.618,36.848,3.618
	c11.242,0,22.543-0.86,33.596-2.961c2.483-0.472,29.563-8.972,29.272-9.352c2.443,3.199,5.809,8.134,9.147,14.723
	c4.901,9.674,10.598,24.713,12.249,44.436C340.168,364.725,340.064,364.641,339.968,364.544z"/>
<g>
</g>
<g>
</g>
<g>
</g>
<g>
</g>
<g>
</g>
<g>
</g>
<g>
</g>
<g>
</g>
<g>
</g>
<g>
</g>
<g>
</g>
<g>
</g>
<g>
</g>
<g>
</g>
<g>
</g>
</svg>
