<?xml version="1.0" encoding="iso-8859-1"?>
<!-- Generator: Adobe Illustrator 19.0.0, SVG Export Plug-In . SVG Version: 6.00 Build 0)  -->
<svg version="1.1" id="Layer_1" xmlns="http://www.w3.org/2000/svg" x="0px" y="0px"
     viewBox="0 0 511.999 511.999" style="enable-background:new 0 0 511.999 511.999;" xml:space="preserve">
<g>
	<path style="fill:#FFA0C1;" d="M384.54,266.88l0.006-0.005l-18.577-14.842l-127.718-33.418L121.902,141.12l-16.221-0.971
		l0.002,0.009c-15.155,19.53-28.868,41.534-40.358,65.767l-0.054,0.131l-4.843,33.671l54.656,50.795l55.917,34.874l67.708,30.769
		l79.669,14.526l30.189-14.53l12.905-15.502l0.054-0.105C372.231,315.956,379.793,291.146,384.54,266.88z"/>
	<path style="fill:#FFA0C1;" d="M317.143,45.011c-33.636-15.285-78.812-8.234-123.397,17.103l-0.866,0.493l38.928,52.125
		l103.935,47.232l49.869-11.773C375.495,99.466,350.996,60.395,317.143,45.011z"/>
	<path style="fill:#FFA0C1;" d="M389.645,230.276c0.9-10.83,1.242-21.466,1.046-31.83l-0.016-0.78l-119.642-51.19L153.786,90.014
		c-8.142,6.806-16.129,14.227-23.885,22.224l-0.013-0.003l7.445,27.689l105.808,67.933l125.345,38.638l21.168-16.212
		L389.645,230.276z"/>
</g>
<path style="fill:#94D77F;" d="M390.675,197.665c-0.358-16.63-2.088-32.555-5.064-47.474
	c-28.872-2.862-64.284-11.877-102.895-29.424s-68.692-38.294-89.836-58.161c-13.196,7.57-26.331,16.739-39.093,27.408
	c27.641,27.899,65.974,53.679,109.519,73.467C306.849,183.269,351.481,195.191,390.675,197.665z"/>
<path style="fill:#61CCFF;" d="M233.182,229.766c50.549,22.971,102.214,36.136,145.479,37.068c1.99,0.043,3.946,0.049,5.885,0.04
	c2.421-12.372,4.11-24.602,5.107-36.592c-3.286,0.118-6.686,0.146-10.206,0.07c-38.434-0.828-85.017-12.834-131.168-33.807
	s-85.831-48.168-111.732-76.576c-2.372-2.602-4.587-5.182-6.659-7.735c-8.376,8.637-16.479,17.952-24.207,27.913
	c1.269,1.468,2.56,2.937,3.9,4.408C138.738,176.532,182.633,206.794,233.182,229.766z"/>
<g>
	<path style="fill:#FFA0C1;" d="M253.18,463.712l-0.053-11.59l-31.452-5.132l-41.289-12.464l-33.363-15.161l-20.266-9.21
		l-74.036-46.242l-8.925,4.648l0.018,0.029c13.519,45.593,45.408,78.016,83.053,95.124c37.649,17.109,83.052,19.808,126.292,0.001
		L253.18,463.712z"/>
	<path style="fill:#FFA0C1;" d="M329.763,397.543l-10.372-12.65l-71.075-7.868l-78.321-31.775l-19.932-9.058l-91.502-73.647
		l-15.285,4.807l-0.142,0.605c-3.45,14.622-5.392,28.565-6.018,41.809l-0.015,0.002l4.976,17.243l40.757,43.716l77.747,39.339
		l89.048,28.332l30.978-0.127l21.265-8.18l-0.003-0.017C311.565,420.766,320.912,409.969,329.763,397.543L329.763,397.543z"/>
</g>
<path style="fill:#61CCFF;" d="M361.474,340.66c-22.256,16.143-88.96,16.711-169.622-19.945S67.748,233.437,65.272,206.054
	c-0.821,1.732-1.635,3.469-2.431,5.223c-8.929,19.648-15.338,38.352-19.564,56.075c3.03,4.048,6.314,8.107,9.882,12.17
	c27.99,31.872,70.353,61.67,119.283,83.905c48.93,22.235,99.238,34.55,141.656,34.674c5.407,0.016,10.625-0.179,15.667-0.56
	c10.571-14.839,20.446-31.968,29.375-51.617C359.936,344.172,360.709,342.417,361.474,340.66z"/>
<path style="fill:#94D77F;" d="M157.415,396.492c-46.151-20.973-85.831-48.168-111.732-76.576c-3.123-3.425-5.981-6.814-8.582-10.15
	c-1.015,21.493,1.46,41.131,6.696,58.794c26.925,22.892,60.876,44.045,98.522,61.153s75.909,28.771,110.862,33.999
	c16.748-7.672,33.17-18.723,48.692-33.622c-4.222,0.234-8.656,0.31-13.289,0.21C250.149,429.472,203.566,417.465,157.415,396.492z"
	/>
<path style="opacity:0.1;enable-background:new    ;" d="M85.008,356.824c-1.464-16.948-0.623-35.272,2.968-54.892
	c3.937-21.503,11.179-44.564,22.323-69.087c16.318-35.907,37.509-67.091,61.137-92.774c18.506-20.114,38.505-36.843,58.842-49.806
	c37.632-23.987,76.402-35.073,108.927-30.802c-6.805-5.999-14.179-10.87-22.062-14.452c-36.388-16.537-86.284-6.932-134.323,23.689
	c-20.337,12.963-40.336,29.692-58.842,49.806c-23.628,25.682-44.82,56.867-61.137,92.774
	c-11.144,24.522-18.385,47.584-22.323,69.087c-3.592,19.62-4.432,37.944-2.968,54.892c5.468,63.298,43.059,107.434,89.319,128.455
	c7.901,3.591,16.149,6.529,24.642,8.777C116.173,448.606,89.543,409.311,85.008,356.824z"/>
<g>
	<path style="fill:#CACED9;" d="M299.609,329.941C326.639,200.911,314,146.334,278.221,146.7
		c-35.779,0.366-47.301,55.189-17.643,183.64L299.609,329.941z"/>
	<path style="fill:#CACED9;" d="M329.406,347.506c99.805-86.128,153.678-101.498,170.682-70.017
		c17.005,31.481-25.383,68.109-152.132,104.36L329.406,347.506z"/>
</g>
<path style="fill:#DDE1ED;" d="M359.051,414.837c21.602-36.646,9.407-83.866-27.239-105.468
	c-36.646-21.602-83.866-9.407-105.468,27.239c-33.938-20.006-113.876,76.809,3.384,145.933S392.988,434.843,359.051,414.837z"/>
<path style="opacity:0.1;enable-background:new    ;" d="M250.58,492.966c-117.261-69.125-37.323-165.94-3.384-145.933
	c18.649-31.635,56.384-45.026,89.931-34.206c-1.715-1.208-3.475-2.374-5.314-3.458c-36.646-21.602-83.866-9.407-105.468,27.239
	c-33.938-20.006-113.877,76.809,3.384,145.933c7.916,4.667,15.503,8.478,22.767,11.536
	C251.858,493.71,251.222,493.345,250.58,492.966z"/>
<path style="fill:#FFD77A;" d="M202.341,112.785c-6.178-8.774-11.233-18.253-15.5-28.099
	c-12.871-29.697-41.133-50.219-73.402-53.229l0,0c9.811-13.223,10.199-23.637,10.199-23.637s-18.571,1.121-27.569,10.116
	c-3.461,3.46-8.805,4.284-13.147,2.026c-11.288-5.869-29.335-1.347-29.335-1.347s3.505,9.814,16.841,19.469l0,0
	C40.561,50.671,19.788,78.75,16.455,110.944c-1.105,10.674-3.071,21.235-6.321,31.462c-7.811,24.58,6.375,91.717,110.058,75.738
	S217.19,133.873,202.341,112.785z"/>
<g style="opacity:0.1;">
	<path d="M70.426,38.085C40.56,50.671,19.787,78.75,16.454,110.944c-1.105,10.674-3.071,21.234-6.321,31.462
		c-7.31,23.003,4.652,83.273,91.197,77.815c-67.615-4.716-77.021-56.805-70.346-77.815c3.25-10.227,5.217-20.788,6.321-31.462
		C40.64,78.749,40.561,50.671,70.426,38.085L70.426,38.085z"/>
</g>
<path style="fill:#ED9472;" d="M140.661,139.891l-33.411-5.728l-30.136,15.525c0.005,0.038,0.008,0.074,0.014,0.112
	c2.209,14.335,18.227,23.762,35.776,21.057c17.55-2.704,29.986-16.517,27.778-30.851
	C140.675,139.967,140.667,139.93,140.661,139.891z"/>
<path style="fill:#FF9E78;" d="M109.595,149.378c11.94-1.84,22.68-5.246,31.033-9.48l0.033-0.006
	c-2.276-14.27-18.253-23.641-35.756-20.944c-17.504,2.697-29.919,16.446-27.791,30.74l0.032-0.007
	C86.386,151.204,97.654,151.218,109.595,149.378z"/>
<circle cx="245.853" cy="373.862" r="8.84"/>
<path d="M289.247,433.291c-6.979-0.396-11.772-2.134-13.147-4.769c-1.82-3.486,0.684-10.091,2.462-13.373
	c2.573-0.071,4.73-1.036,5.818-2.882c2.105-3.571-0.577-9.053-5.99-12.244c-5.413-3.191-11.508-2.883-13.613,0.688
	c-1.088,1.846-0.889,4.202,0.297,6.488c-1.863,2.912-6.459,8.513-10.493,8.626c-3.001,0.084-6.824-3.267-10.557-9.194
	c-2.302-3.653-7.129-4.751-10.784-2.448c-3.654,2.302-4.75,7.129-2.448,10.784c7.054,11.198,15.213,16.745,24.232,16.491
	c1.876-0.053,3.658-0.362,5.343-0.862c0.378,1.716,0.972,3.425,1.833,5.092c4.147,8.02,12.949,12.467,26.162,13.216
	c0.151,0.008,0.301,0.012,0.45,0.012c4.116,0,7.564-3.215,7.8-7.376C296.856,437.228,293.56,433.535,289.247,433.291z"/>
<circle cx="317.03" cy="415.816" r="8.84"/>
<circle cx="63.639" cy="118.23" r="9.383"/>
<circle cx="144.065" cy="105.833" r="9.383"/>
<path d="M103.731,111.219c-21.59,3.327-36.945,20.958-34.364,39.373c0.003,0.03,0.003,0.06,0.007,0.092
	c0.013,0.101,0.028,0.22,0.042,0.305c2.514,16.309,18.288,28.148,37.508,28.149h0.003c2.382,0,4.8-0.187,7.186-0.554
	c21.783-3.357,37.177-21.199,34.323-39.713c-0.01-0.071-0.024-0.141-0.036-0.211v-0.001c0-0.002-0.001-0.004-0.001-0.007
	c-0.01-0.058-0.019-0.118-0.03-0.177c-0.003-0.018-0.009-0.035-0.012-0.053c-2.703-16.098-18.401-27.757-37.436-27.757
	C108.534,110.666,106.117,110.852,103.731,111.219z M111.731,163.129c-7.034,1.083-14.813-0.13-20.576-4.518
	c0.083,0,0.168-0.004,0.251-0.004c0.09,0,0.177,0.005,0.269,0.005c6.4,0,12.804-0.531,19.128-1.506
	c6.237-0.961,12.432-2.371,18.455-4.258c0.249-0.078,0.508-0.146,0.756-0.225C126.338,157.847,119.71,161.898,111.731,163.129z
	 M130.882,135.705c-0.016,0.006-0.029,0.012-0.044,0.019c-0.085,0.033-0.175,0.065-0.262,0.098
	c-7.118,2.784-14.604,4.681-22.156,5.827c-0.028,0.004-0.056,0.007-0.085,0.011c-7.62,1.168-15.44,1.627-23.136,1.082
	c2.04-7.762,10.287-14.43,20.914-16.068C114.94,125.317,125.798,127.69,130.882,135.705z"/>
<path d="M482.412,255.482c-21.933-4.395-53.267,7.64-95.152,36.65c2.336-9.017,4.301-18.1,5.92-27.196
	c0.082-0.279,0.155-0.564,0.206-0.857c9.852-56.044,7.3-118.206-18.602-169.854c-1.935-3.86-6.633-5.42-10.495-3.484
	c-3.861,1.936-5.42,6.635-3.484,10.495c5.527,11.02,9.999,23.077,13.449,35.886c-21.782-2.757-52.713-9.567-90.097-25.695
	c-37.388-16.129-63.571-33.96-80.523-47.915C243.15,42.337,282.11,36.948,310.925,49.38c12.501,5.392,23.924,14.416,33.953,26.82
	c2.715,3.358,7.639,3.877,10.997,1.164c3.358-2.715,3.879-7.639,1.164-10.997c-11.638-14.393-25.069-24.939-39.92-31.345
	c-19.555-8.436-43.207-10.146-68.397-4.946c-20.298,4.19-41.682,12.894-62.521,25.356c-0.033,0.02-0.07,0.031-0.103,0.051
	c-0.422,0.253-0.855,0.521-1.281,0.782c-1.493,0.905-2.982,1.831-4.467,2.775c-13.663-16.822-32.692-28.705-54.105-33.471
	c4.763-9.571,5.187-16.476,5.222-17.457c0.082-2.205-0.77-4.341-2.349-5.883s-3.729-2.347-5.937-2.212
	c-2.204,0.132-21.842,1.611-32.626,12.391c-1.048,1.048-2.698,1.301-4.011,0.618c-13.529-7.033-32.702-2.53-34.842-1.994
	c-2.14,0.536-3.953,1.952-4.995,3.897c-1.041,1.945-1.211,4.239-0.469,6.318c0.329,0.924,2.813,7.382,10.235,15.074
	c-7.755,4.494-14.836,10.052-21.146,16.607c-2.995,3.111-2.9,8.061,0.211,11.056c3.112,2.996,8.062,2.9,11.056-0.211
	c7.686-7.985,16.731-14.203,26.885-18.482c2.602-1.097,4.411-3.511,4.732-6.317c0.321-2.806-0.896-5.566-3.183-7.222
	c-3.314-2.4-5.914-4.798-7.926-6.973c4.344-0.074,8.914,0.398,12.227,2.122c7.415,3.853,16.37,2.475,22.282-3.434
	c2.654-2.654,6.865-4.49,11.025-5.717c-1.264,2.685-3.021,5.756-5.463,9.048c-1.683,2.268-2.011,5.267-0.861,7.845
	c1.151,2.579,3.603,4.337,6.414,4.6c31.257,2.92,55.49,23.143,68.102,51.15c6.092,13.528,17.461,26.055,20.778,40.616
	c11.292,49.574-43.425,73.37-82.59,79.407c-30.006,4.624-68.441,4.829-90.016-20.372c-13.797-16.116-14.376-35.902-11.4-45.268
	c3.223-10.142,5.396-20.945,6.647-33.025c0.847-8.176,2.936-16.163,6.212-23.741c1.714-3.964-0.111-8.567-4.074-10.28
	c-3.963-1.714-8.567,0.112-10.28,4.074c-3.907,9.04-6.399,18.575-7.41,28.337c-1.14,11.007-3.101,20.787-5.996,29.898
	c-4.836,15.219-2.385,40.541,14.424,60.175c7.012,8.192,17.677,16.684,33.711,22.175c-2.111,5.427-4.082,10.907-5.901,16.439
	c-14.914,45.345-19.767,96.073-2.986,141.633c15.187,41.223,46.014,73.616,86.802,91.212c20.466,8.829,42.153,13.317,63.861,13.316
	c7.838,0,15.682-0.587,23.469-1.765c3.068,2.032,6.298,4.051,9.697,6.054c25.574,15.076,49.783,22.72,71.964,22.723
	c42.892,0,69.962-28.826,77.756-57.392c4.648-17.032,2.056-32.516-6.506-41.715c4.911-10.036,7.737-20.792,8.427-31.747
	c20.998-6.671,39.773-13.519,55.864-20.386c3.972-1.694,5.818-6.289,4.122-10.261c-1.695-3.972-6.288-5.82-10.261-4.122
	c-14.566,6.216-31.443,12.434-50.278,18.526c-0.455-3.476-1.111-6.947-2.002-10.395c-2.355-9.121-6.148-17.621-11.156-25.282
	c0.785-0.622,1.565-1.235,2.346-1.85c33.306-26.154,85.347-62.152,113.287-56.559c6.33,1.268,10.742,4.569,13.885,10.389
	c8.414,15.575-4.034,32.774-36.996,51.116c-3.773,2.1-5.131,6.861-3.031,10.635c2.101,3.773,6.861,5.131,10.635,3.031
	c20.111-11.19,34.007-22.791,41.305-34.48c7.796-12.488,8.435-25.536,1.846-37.733C501.689,263.966,493.19,257.64,482.412,255.482z
	 M194.033,81.575c-1.428-3.297-3.049-6.511-4.834-9.628c0.032-0.021,0.064-0.041,0.096-0.062
	c23.832,20.532,54.354,39.098,88.668,53.901c34.305,14.8,68.746,24.26,100.026,27.51c0.284,1.468,0.562,2.94,0.82,4.424
	c0.041,0.231,0.083,0.462,0.124,0.693c1.485,8.649,2.533,17.559,3.166,26.655c-20.597-1.598-42.483-5.688-65.237-12.197
	c-5.454-18.441-17.939-33.806-38.333-33.995c-9.255-0.085-18.623,3.63-25.196,10.121c-12.408-5.81-24.455-12.173-35.926-18.973
	c-0.538-2.868-1.239-5.619-2.081-8.207c-2.991-9.185-8.949-16.432-13.631-24.727C198.858,92.065,196.327,86.871,194.033,81.575z
	 M299.018,291.105c-2.071-0.153-4.148-0.239-6.231-0.239c-10.687,0-21.41,2.071-31.345,5.999
	c-8.416-43.396-17.289-109.346,0.233-133.626c0.023-0.03,0.049-0.058,0.071-0.09c6.38-8.798,19.91-11.635,28.956-4.77
	c0.266,0.206,0.532,0.425,0.798,0.654c0.139,0.117,0.274,0.239,0.411,0.36c4.09,3.694,8.167,10.182,10.947,21.602
	c0.024,0.099,0.064,0.192,0.091,0.289C309.969,210.921,304.455,258.347,299.018,291.105z M244.345,162.038
	c-2.672,5.643-4.702,12.283-6.104,19.976c-8.516-3.999-16.828-8.239-24.857-12.671c2.863-6.933,4.43-13.947,4.983-20.726
	C226.794,153.338,235.479,157.822,244.345,162.038z M193.89,196.268c4.151-3.687,8.273-8.162,11.632-12.832
	c0.096-0.133,0.198-0.265,0.293-0.398c9.803,5.412,20.016,10.543,30.487,15.317c0.403,0.183-0.353,8.217-0.368,8.939
	c-0.09,4.265-0.06,8.53,0.066,12.795c0.009,0.323,0.017,0.641,0.027,0.965c-15.598-6.758-30.669-14.267-44.951-22.393
	C192.029,197.885,192.968,197.088,193.89,196.268z M82.813,228.185c12.603,0.623,25.249-0.312,37.715-2.186
	c0.293-0.044,0.579-0.081,0.873-0.127c23.751-3.661,41.682-9.975,55.24-17.527c16.96,10.041,35.059,19.247,53.899,27.374
	c2.124,0.915,4.32,1.841,6.558,2.767c1.642,19.211,4.941,41.216,9.874,65.81c-7.639,4.875-14.568,11.026-20.441,18.363
	c-0.073,0.09-0.147,0.178-0.219,0.269c-0.289,0.364-0.581,0.723-0.864,1.093c-9.405-3.22-18.895-6.883-28.284-10.935
	c-59.343-25.601-98.51-58.995-115.246-84.942C82.212,228.162,82.514,228.171,82.813,228.185z M60.226,242.367
	c1.377-4.121,2.846-8.214,4.395-12.273c0.039-0.102,0.079-0.204,0.118-0.307c15.08,27.7,55.163,67.004,126.227,97.661
	c2.504,1.08,5.017,2.134,7.533,3.161c-9.484,4.74-18.337,12.952-25.124,23.274c-46.158-20.618-86.134-47.976-112.998-77.402
	c-2.556-2.8-5.033-5.677-7.393-8.585C54.931,259.508,57.343,250.992,60.226,242.367z M49.256,287.487
	c28.093,30.604,69.369,58.931,116.832,80.262c-0.08,0.196-0.16,0.392-0.238,0.589c-0.52,1.307-1.004,2.63-1.454,3.964
	c-0.922,2.73-1.704,5.503-2.308,8.32c-0.532,2.427-0.955,4.903-1.255,7.424c-44.163-19.476-82.152-44.656-107.248-71.139
	c-2.261-2.387-4.427-4.806-6.466-7.221C47.428,302.421,48.146,295.014,49.256,287.487z M53.092,364.168
	c-0.503-1.777-0.975-3.563-1.423-5.355c-0.004-0.018-0.009-0.034-0.014-0.051c-2.027-8.288-3.398-16.865-4.12-25.697
	c27.064,26.642,65.959,51.611,110.461,70.81c0.897,0.387,1.793,0.769,2.69,1.149c0.003,0.034,0.009,0.068,0.012,0.102
	c0.843,8.073,2.937,15.995,6.098,23.469c0.063,0.149,0.126,0.298,0.19,0.447c0.174,0.407,0.337,0.814,0.518,1.22
	c-5.973-2.294-11.908-4.712-17.77-7.241c-36.204-15.618-69.343-35.173-95.999-56.632C53.516,365.65,53.301,364.909,53.092,364.168z
	 M134.942,457.311c-30.078-12.975-54.143-34.852-69.412-62.69c23.23,16.003,49.733,30.56,78.011,42.76
	c12.14,5.237,24.588,10.009,37.041,14.213c4.629,5.856,10.242,11.774,17.022,17.666
	C176.359,470.004,155.008,465.967,134.942,457.311z M360.408,450.49c-6.231,22.834-28.024,45.872-62.678,45.871
	c-19.341-0.002-40.878-6.919-64.014-20.557c-24.359-14.36-48.929-35.046-55.96-63.703c-0.017-0.068-0.033-0.136-0.049-0.204
	c-2.211-9.2-2.361-18.861-0.313-28.105c0.014-0.06,0.025-0.122,0.039-0.182c3.938-17.534,18.269-41.853,38.738-41.853
	c3.025,0,4.984,1.36,7.737,2.272c3.472,1.15,7.351-0.335,9.202-3.474c8.645-14.664,22.721-25.695,38.921-30.838
	c0.089-0.028,0.176-0.057,0.264-0.086c7.345-2.266,15.054-3.314,22.794-3.062c0.055,0.002,0.109,0.001,0.164,0.003
	c19.876,0.645,39.19,10.447,51.568,25.989c0.021,0.027,0.038,0.055,0.058,0.081c9.611,12.091,14.952,27.277,15.039,42.762
	c0.001,0.106,0.016,0.211,0.021,0.317c0.021,12.244-3.227,24.317-9.607,35.143c-1.053,1.786-1.353,3.918-0.835,5.926
	c0.519,2.008,1.813,3.727,3.6,4.78C361.898,425.583,364.033,437.204,360.408,450.49z M366.636,307.141
	c-4.138,3.144-8.357,6.417-12.676,9.848c0.546-0.434-15.113-12.463-16.475-13.309c-7.138-4.435-14.922-7.818-23.044-9.974
	c1.747-10.469,3.178-20.398,4.312-29.823c20.238,4.145,39.495,6.393,57.403,6.698C373.675,282.828,370.513,295.06,366.636,307.141z
	 M378.937,254.975c-18.067-0.112-37.714-2.365-58.503-6.71c0.661-7.353,1.112-14.373,1.351-20.999
	c20.719,4.515,40.217,6.821,58.081,6.862h0.441c0.394,0,0.788-0.001,1.182-0.004C380.864,241.045,380.013,248.002,378.937,254.975z
	 M382.532,218.459c-0.742,0.009-1.483,0.03-2.225,0.03h-0.406c-17.686-0.041-37.194-2.479-58.057-7.239
	c-0.169-7.684-0.691-14.754-1.559-21.221c21.688,5.748,42.623,9.352,62.47,10.761C382.848,206.626,382.778,212.519,382.532,218.459z
	"/>
<g>
</g>
<g>
</g>
<g>
</g>
<g>
</g>
<g>
</g>
<g>
</g>
<g>
</g>
<g>
</g>
<g>
</g>
<g>
</g>
<g>
</g>
<g>
</g>
<g>
</g>
<g>
</g>
<g>
</g>
</svg>
